<?xml version="1.0" encoding="UTF-8" standalone="no"?>
<!DOCTYPE svg PUBLIC "-//W3C//DTD SVG 1.1//EN" "http://www.w3.org/Graphics/SVG/1.1/DTD/svg11.dtd">
<svg width="100%" height="100%" viewBox="0 0 3600 2100" version="1.1" xmlns="http://www.w3.org/2000/svg" xmlns:xlink="http://www.w3.org/1999/xlink" xml:space="preserve" xmlns:serif="http://www.serif.com/" style="fill-rule:evenodd;clip-rule:evenodd;stroke-linejoin:round;stroke-miterlimit:2;">
    <g transform="matrix(1.69345,0,0,1.69345,-161.059,-723.606)">
        <path d="M405.905,1254.52C414.84,1254.52 422.095,1261.78 422.095,1270.71C422.095,1279.65 414.84,1286.9 405.905,1286.9C396.969,1286.9 389.715,1279.65 389.715,1270.71C389.715,1261.78 396.969,1254.52 405.905,1254.52ZM346.765,866.944C347.054,865.161 346.11,863.406 344.463,862.663C321.487,852.233 310,835.927 310,813.75C310,773.75 332.917,738.125 378.75,706.875C420.833,678.125 462.5,663.75 503.75,663.75C550.833,663.75 574.375,684.167 574.375,725C574.375,734.167 570,750 561.25,772.5C557.083,783.333 555,791.875 555,798.125C555,861.458 551.042,914.167 543.125,956.25C533.649,1007.42 518.128,1048.89 496.561,1080.66C490.72,1089.24 488.431,1099.75 490.177,1109.98C490.705,1112.33 491.07,1114.36 491.23,1116.01C491.322,1116.95 491.23,1118.86 491.23,1118.86C491.23,1129.33 483.232,1137.83 473.38,1137.83L473.265,1137.83C467.067,1137.79 461.615,1134.38 458.445,1129.25C457.655,1128 456.388,1127.13 454.939,1126.84C453.49,1126.55 451.986,1126.87 450.778,1127.72C441.902,1133.84 432.473,1139.08 422.476,1143.4C418.64,1145.03 416,1148.63 415.593,1152.78C415.33,1155.46 415.175,1158.26 415.175,1161.17C415.175,1181.17 421.559,1199.3 422.393,1207.46C422.484,1208.36 422.393,1210.17 422.393,1210.17C422.393,1220.15 414.394,1228.25 404.542,1228.25L404.427,1228.25C394.628,1228.19 386.692,1220.11 386.692,1210.17C386.692,1210.17 386.601,1208.36 386.692,1207.46C387.526,1199.3 393.214,1181.35 393.214,1161.35C393.214,1158.51 393.087,1155.78 392.868,1153.14C381.592,1155.81 359.93,1157.52 348.2,1158.28C343.442,1158.43 339.447,1161.91 338.643,1166.6C337.722,1171.97 337.058,1177.78 337.058,1184.1C337.058,1205.1 343.441,1224.13 344.275,1232.7C344.367,1233.64 344.275,1235.55 344.275,1235.55C344.275,1246.02 336.277,1254.52 326.425,1254.52L326.309,1254.52C316.511,1254.45 308.575,1245.98 308.575,1235.55C308.575,1235.55 308.483,1233.64 308.575,1232.7C309.408,1224.13 315.096,1205.29 315.096,1184.29C315.096,1176.04 314.119,1168.62 312.932,1161.92C312.201,1157.78 309.09,1154.46 305.002,1153.46C293.109,1150.45 279.983,1146.18 265.625,1140.62C228.125,1126.46 209.375,1111.25 209.375,1095C209.375,1091.25 211.25,1083.75 215,1072.5L221.25,1072.5C232.083,1084.58 250.417,1096.67 276.25,1108.75C302.083,1120.83 322.708,1126.88 338.125,1126.88C388.542,1126.88 430.625,1102.71 464.375,1054.38C494.375,1011.04 509.375,962.708 509.375,909.375C509.375,896.458 506.875,885.625 501.875,876.875C493.542,873.542 487.083,871.875 482.5,871.875C480,871.875 475.625,872.708 469.375,874.375C465.435,875.426 459.807,876.144 455.89,876.531C453.252,876.723 451.067,878.653 450.55,881.247C449.265,887.672 448.231,894.762 448.231,902.652C448.231,923.652 454.615,942.675 455.448,951.249C455.54,952.193 455.448,954.095 455.448,954.095C455.448,964.568 447.45,973.071 437.598,973.071L437.483,973.07C427.684,973.004 419.748,964.527 419.748,954.095C419.748,954.095 419.656,952.193 419.748,951.249C420.582,942.675 426.27,923.839 426.27,902.839C426.27,894.657 425.308,887.296 424.135,880.637C423.688,878.128 421.561,876.264 419.015,876.15C404.202,875.487 391.524,874.374 380.981,872.81C380.429,872.726 379.869,872.912 379.478,873.311C379.087,873.71 378.911,874.272 379.006,874.823C379.476,877.514 379.86,879.794 380.057,881.563C380.148,882.388 380.057,884.05 380.057,884.05C380.057,893.198 372.058,900.625 362.207,900.625L362.091,900.625C352.293,900.567 344.356,893.162 344.356,884.05C344.356,884.05 344.265,882.388 344.356,881.563C344.725,878.257 345.743,873.172 346.765,866.944ZM362.207,930.696C371.142,930.696 378.396,937.95 378.396,946.886C378.396,955.821 371.142,963.076 362.207,963.076C353.271,963.076 346.017,955.821 346.017,946.886C346.017,937.95 353.271,930.696 362.207,930.696ZM2190.62,756.875L2092.5,725C2068.33,725 2047.08,741.458 2028.75,774.375C2022.08,785.625 2010.94,812.188 1995.31,854.063C1979.69,895.938 1954.58,916.875 1920,916.875C1922.08,899.792 1932.92,876.25 1952.5,846.25C1973.75,813.75 1986.46,789.792 1990.62,774.375C1993.96,761.458 1996.25,740.208 1997.5,710.625C1997.92,698.125 2000.83,685.208 2006.25,671.875C2013.75,653.125 2022.29,643.333 2031.88,642.5L2043.75,643.125L2050,685.625C2052.92,696.458 2062.71,701.875 2079.38,701.875L2100.62,701.875C2104.38,701.458 2107.29,701.25 2109.38,701.25C2157.29,700.417 2184.38,718.958 2190.62,756.875ZM1296.25,749.375C1296.25,763.958 1289.38,785 1275.62,812.5C1261.88,840 1249.17,859.167 1237.5,870C1237.92,875.417 1238.33,878.75 1238.75,880C1239.58,882.917 1241.04,886.042 1243.12,889.375C1239.79,901.875 1231.46,908.125 1218.12,908.125C1211.04,908.125 1204.69,906.042 1199.06,901.875C1193.44,897.708 1190.62,892.292 1190.62,885.625C1190.62,873.542 1201.25,852.917 1222.5,823.75C1243.75,794.583 1254.38,774.375 1254.38,763.125C1254.38,741.875 1243.54,731.25 1221.88,731.25C1193.12,731.25 1165.21,744.583 1138.12,771.25C1124.38,785.833 1099.17,811.667 1062.5,848.75C1033.33,878.333 1005.21,895.417 978.125,900L978.125,894.375L972.5,888.125C972.5,866.042 992.917,830.625 1033.75,781.875C1057.08,753.958 1072.08,733.75 1078.75,721.25C1082.5,710.417 1086.67,699.583 1091.25,688.75C1095,680.417 1098.65,674.583 1102.19,671.25C1105.73,667.917 1111.46,666.25 1119.38,666.25C1131.04,666.25 1136.88,672.292 1136.88,684.375C1136.88,692.708 1135.83,699.375 1133.75,704.375C1133.33,706.042 1128.75,717.292 1120,738.125C1155.83,718.958 1176.25,708.333 1181.25,706.25C1209.58,692.5 1230.42,685.625 1243.75,685.625C1259.58,685.625 1272.29,692.188 1281.88,705.313C1291.46,718.438 1296.25,733.125 1296.25,749.375ZM1620,749.375C1620,763.958 1613.12,785 1599.38,812.5C1585.62,840 1572.92,859.167 1561.25,870C1561.67,875.417 1562.08,878.75 1562.5,880C1563.33,882.917 1564.79,886.042 1566.88,889.375C1563.54,901.875 1555.21,908.125 1541.88,908.125C1534.79,908.125 1528.44,906.042 1522.81,901.875C1517.19,897.708 1514.38,892.292 1514.38,885.625C1514.38,873.542 1525,852.917 1546.25,823.75C1567.5,794.583 1578.12,774.375 1578.12,763.125C1578.12,741.875 1567.29,731.25 1545.62,731.25C1516.88,731.25 1488.96,744.583 1461.88,771.25C1448.12,785.833 1422.92,811.667 1386.25,848.75C1357.08,878.333 1328.96,895.417 1301.88,900L1301.88,894.375L1296.25,888.125C1296.25,866.042 1316.67,830.625 1357.5,781.875C1380.83,753.958 1395.83,733.75 1402.5,721.25C1406.25,710.417 1410.42,699.583 1415,688.75C1418.75,680.417 1422.4,674.583 1425.94,671.25C1429.48,667.917 1435.21,666.25 1443.12,666.25C1454.79,666.25 1460.62,672.292 1460.62,684.375C1460.62,692.708 1459.58,699.375 1457.5,704.375C1457.08,706.042 1452.5,717.292 1443.75,738.125C1479.58,718.958 1500,708.333 1505,706.25C1533.33,692.5 1554.17,685.625 1567.5,685.625C1583.33,685.625 1596.04,692.188 1605.62,705.313C1615.21,718.438 1620,733.125 1620,749.375ZM964.375,783.125C964.375,822.292 936.042,852.917 879.375,875C836.458,891.667 791.25,900 743.75,900C644.167,900 594.375,875.417 594.375,826.25C594.375,791.25 626.875,757.292 691.875,724.375C749.792,695.208 798.542,680.625 838.125,680.625C873.125,680.625 902.083,688.75 925,705C951.25,723.333 964.375,749.375 964.375,783.125ZM1914.38,858.75C1901.88,872.5 1872.29,882.917 1825.62,890C1792.71,895 1759.17,897.5 1725,897.5C1654.58,897.5 1619.38,877.292 1619.38,836.875C1619.38,787.292 1656.04,744.792 1729.38,709.375C1754.79,696.875 1781.25,686.667 1808.75,678.75C1835.42,685 1853.12,689.583 1861.88,692.5C1880.62,698.75 1890,714.375 1890,739.375C1890,761.458 1875.83,778.958 1847.5,791.875C1823.75,802.708 1799.58,808.125 1775,808.125C1736.67,808.125 1709.17,802.292 1692.5,790.625C1671.67,800.625 1661.25,813.542 1661.25,829.375C1661.25,857.292 1686.67,871.25 1737.5,871.25C1756.25,871.25 1778.12,870 1803.12,867.5C1861.88,861.667 1898.96,858.75 1914.38,858.75ZM930,779.375C930,758.958 919.583,743.542 898.75,733.125C882.083,724.792 862.5,720.625 840,720.625C802.5,720.625 763.542,731.042 723.125,751.875C680.625,773.125 650.208,799.167 631.875,830C660.208,858.75 694.167,873.125 733.75,873.125C771.667,873.125 810.625,866.25 850.625,852.5C903.542,834.167 930,809.792 930,779.375ZM451.908,711.768C452.041,710.515 451.503,709.285 450.492,708.533C449.482,707.781 448.149,707.618 446.987,708.104C434.174,713.597 420.804,721.104 406.875,730.625C370.625,755.208 352.5,780.208 352.5,805.625C352.5,833.542 379.792,847.5 434.375,847.5C448.542,847.5 462.5,845.417 476.25,841.25C495.833,835.417 505.625,827.083 505.625,816.25C505.625,813.333 504.688,809.167 502.813,803.75C500.937,798.333 500,794.375 500,791.875C500,786.875 507.708,771.667 523.125,746.25C530.625,734.167 534.375,724.583 534.375,717.5C534.375,703.75 521.667,696.875 496.25,696.875C490.652,696.875 484.916,697.371 479.04,698.363C476.6,698.783 474.863,700.966 475.003,703.438C476.16,721.543 481.253,737.337 481.992,744.932C482.084,745.876 481.992,747.778 481.992,747.778C481.992,758.251 473.994,766.754 464.142,766.754L464.026,766.753C454.228,766.687 446.292,758.21 446.292,747.778C446.292,747.778 446.2,745.876 446.292,744.932C446.917,738.506 450.269,726.314 451.908,711.768ZM1850,738.75C1837.5,725.417 1822.29,718.75 1804.38,718.75C1791.46,718.75 1779.79,721.458 1769.38,726.875C1768.96,727.292 1758.33,733.125 1737.5,744.375C1750,764.375 1767.08,774.375 1788.75,774.375C1813.33,774.375 1833.75,762.5 1850,738.75Z" style="fill:rgb(170,2,0);"/>
    </g>
    <g transform="matrix(3.33456,0,0,2.40648,-745.47,-1692.6)">
        <g transform="matrix(0.986772,-0.0389367,0.162116,0.237,-229.958,1029.55)">
            <path d="M314.526,1511.8C317.45,1510.32 321.329,1500.46 324.559,1486.31C327.788,1472.15 329.819,1456.12 329.81,1444.83C329.829,1440.76 329.827,1438.28 329.827,1438.28C329.827,1429.35 337.081,1422.09 346.017,1422.09C354.952,1422.09 362.207,1429.35 362.207,1438.28C362.207,1438.28 358.608,1491.77 362.207,1504.56C364.184,1511.59 374.977,1511.32 381.922,1514.13C383.189,1514.69 384.654,1514.06 386.264,1512.26C391.833,1506.02 404.917,1491.36 404.917,1491.36C410.865,1484.69 421.108,1484.11 427.775,1490.06C434.443,1496.01 435.027,1506.25 429.078,1512.91C429.078,1512.91 428.042,1514.08 426.427,1515.89C424.327,1518.24 421.741,1526.61 420.034,1536.56C418.328,1546.52 417.896,1555.77 418.965,1559.42C418.967,1559.42 418.969,1559.43 418.971,1559.43C419.089,1559.84 419.25,1560.05 419.446,1560.05C424.881,1560.18 503.234,1562.03 503.234,1562.03C512.167,1562.24 519.249,1569.66 519.038,1578.6C518.827,1587.53 511.404,1594.61 502.471,1594.4C502.471,1594.4 436.263,1593.43 425.675,1593.28C424.981,1593.27 424.015,1595.27 423.117,1598.57C423.119,1598.59 423.119,1598.59 423.119,1598.59C420.552,1607.99 418.51,1619.78 417.673,1630.01C416.836,1640.25 417.313,1647.59 418.946,1649.6C430.497,1663.86 444.366,1680.94 444.366,1680.94C449.998,1687.88 448.939,1698.09 442.003,1703.72C435.066,1709.35 424.861,1708.29 419.229,1701.36C419.229,1701.36 387.083,1661.76 379.368,1652.26C378.277,1650.92 377.005,1650.55 375.586,1651.17C366.494,1655.02 356.502,1657.14 346.017,1657.14C334.724,1657.14 324.003,1654.67 314.366,1650.26C312.728,1649.49 310.794,1650.51 308.657,1653.27C298.913,1665.88 270.574,1702.54 270.574,1702.54C265.11,1709.61 254.934,1710.92 247.864,1705.45C240.794,1699.99 239.49,1689.81 244.954,1682.74C244.954,1682.74 246.883,1680.25 249.912,1676.33C254.242,1670.73 259.338,1655.59 263.404,1636.24C267.471,1616.9 269.939,1596.06 269.939,1581.07C269.939,1581.06 269.939,1581.06 269.939,1581.06C269.939,1579.39 269.993,1577.74 270.099,1576.09C270.558,1569.14 270.048,1564.55 268.749,1563.96C259.849,1559.92 233.073,1547.8 233.073,1547.8C224.933,1544.11 221.315,1534.51 225,1526.37C228.685,1518.23 238.286,1514.61 246.426,1518.3C246.426,1518.3 277.523,1532.38 283.826,1535.23C284.563,1535.56 285.433,1535.09 286.392,1533.84C293.852,1524.43 303.483,1516.83 314.526,1511.8Z" style="fill:rgb(170,2,0);"/>
        </g>
        <g transform="matrix(1,0,0,0.240178,112.864,1013.35)">
            <circle cx="135.735" cy="1614.99" r="9.639" style="fill:rgb(170,2,0);"/>
        </g>
        <g transform="matrix(1,0,0,0.240178,252.889,1031.11)">
            <circle cx="135.735" cy="1614.99" r="9.639" style="fill:rgb(170,2,0);"/>
        </g>
        <g transform="matrix(1,0,0,0.240178,317.615,970.886)">
            <circle cx="135.735" cy="1614.99" r="9.639" style="fill:rgb(170,2,0);"/>
        </g>
    </g>
    <g transform="matrix(3.70949,0,0,0.684041,-201.915,785.707)">
        <ellipse cx="167.889" cy="1354.63" rx="4.494" ry="4.058" style="fill:rgb(170,2,0);"/>
    </g>
    <g transform="matrix(3.70949,0,0,0.684041,-377.412,654.886)">
        <ellipse cx="167.889" cy="1354.63" rx="4.494" ry="4.058" style="fill:rgb(170,2,0);"/>
    </g>
    <g transform="matrix(3.70949,0,0,0.684041,-100.828,657.662)">
        <ellipse cx="167.889" cy="1354.63" rx="4.494" ry="4.058" style="fill:rgb(170,2,0);"/>
    </g>
</svg>
